01 New York
02 Chicago
03 Washington
04 Denver
05 Dalles
06 Los Angeles

When Dinosaurs Roamed America is een Amerikaanse natuurdocumentaire van twee uur over de dinosauriërs van Noord-Amerika. De documentaire werd voor het eerst gezonden door Discovery Channel in 2001. When Dinosaurs Roamed America werd geregisseerd door Pierre de Lespinois en had acteur John Goodman als verteller. De dinosauriërs en andere prehistorische dieren werden met behulp van computertechnieken (CGI) tot leven gewekt en in bestaande landschappen geplaatst. When Dinosaurs Roamed America is vergelijkbaar met de succesvolle serie Walking with Dinosaurs uit 1999, een co-productie van BBC en de Discovery Channel.

When Dinosaurs Roamed America (shortened to When Dinosaurs Roamed outside of the U.S.) is a two-hour American television program (produced in the style of a traditional nature documentary) that first aired on Discovery Channel in 2001. It was directed by Pierre de Lespinois and narrated by actor John Goodman. (the voice of Rex in We're Back! A Dinosaur's Story) The dinosaurs were designed by Paleo-artist and art director Mark Dubeau, who is also noted for creating dinosaurs on a myriad of other Discovery Channel and National Geographic specials. The dinosaur animation was directed by noted animator Don Waller (RoboCop, King Kong) at Meteor Studios, in Montreal, Canada. The music was composed by Christopher Franke (ex-member from Tangerine Dream).

When Dinosaurs Roamed America premiered to 5 million viewers.
 
http://www.imdb.com/title/tt0293703	

------------------------ Dutch Friends ------------------------
---------------------------------------------------------------
- Bezoek ook eens mijn vrienden op:  http://www.Film-Test.nl --
----- voor mijn Nederlandse Sync. ondertitels ---- en meer ----
------- http://www.Film-Test.nl ---- Over Films en meer -------
---------------------------------------------------------------

General:

Complete name                    : Prehistoric 1 New York.avi
Format                           : AVI
Format/Info                      : Audio Video Interleave
File size                        : 502 MiB
Duration                         : 43mn 34s
Overall bit rate                 : 1 612 Kbps

Video:

Format                           : MPEG-4 Visual
Format profile                   : Simple@L3
Format settings, BVOP            : No
Format settings, QPel            : No
Format settings, GMC             : No warppoints
Format settings, Matrix          : Default (H.263)
Codec ID                         : XVID
Codec ID/Hint                    : XviD
Duration                         : 43mn 34s
Bit rate                         : 1 409 Kbps
Width                            : 704 pixels
Height                           : 396 pixels
Display aspect ratio             : 16:9
Frame rate                       : 25.000 fps
Color space                      : YUV
Chroma subsampling               : 4:2:0
Bit depth                        : 8 bits
Scan type                        : Progressive
Compression mode                 : Lossy
Bits/(Pixel*Frame)               : 0.202
Stream size                      : 439 MiB (87%)
Writing library                  : XviD 1.1.2 (UTC 2006-11-01)

Audio:

Format                           : AC-3
Format/Info                      : Audio Coding 3
Mode extension                   : CM (complete main)
Codec ID                         : 2000
Duration                         : 43mn 34s
Bit rate mode                    : Constant
Bit rate                         : 192 Kbps
Channel(s)                       : 2 channels
Channel positions                : Front: L R
Sampling rate                    : 48.0 KHz
Bit depth                        : 16 bits
Compression mode                 : Lossy
Stream size                      : 59.8 MiB (12%)
Alignment                        : Aligned on interleaves
Interleave, duration             : 32 ms (0.80 video frame)
Interleave, preload duration     : 32 ms